<?xml version="1.0" standalone="no"?>
<!DOCTYPE svg PUBLIC "-//W3C//DTD SVG 20010904//EN"
 "http://www.w3.org/TR/2001/REC-SVG-20010904/DTD/svg10.dtd">
<svg version="1.0" xmlns="http://www.w3.org/2000/svg"
 width="1080.000000pt" height="1080.000000pt" viewBox="0 0 1080.000000 1080.000000"
 preserveAspectRatio="xMidYMid meet">

<g transform="translate(0.000000,1080.000000) scale(0.100000,-0.100000)"
fill="#000000" stroke="none">
<path d="M5260 9925 c-781 -72 -1438 -293 -2087 -703 -476 -301 -921 -725
-1260 -1202 -261 -368 -475 -797 -617 -1239 -20 -62 -35 -115 -34 -117 2 -1
23 11 48 27 104 70 272 80 385 22 62 -33 154 -106 197 -158 36 -43 82 -128
114 -210 15 -38 28 -72 30 -73 5 -6 244 38 349 64 267 67 516 161 830 313 197
96 390 201 451 246 40 30 711 1272 755 1397 57 164 30 269 -86 331 -33 18 -56
22 -135 21 -86 0 -103 -4 -177 -36 -108 -47 -256 -136 -428 -258 -77 -54 -170
-120 -207 -146 l-67 -46 -54 38 c-31 21 -54 41 -51 45 10 16 490 363 569 412
313 190 547 242 786 176 225 -62 417 -229 479 -415 19 -57 22 -82 18 -168 -8
-174 -51 -273 -381 -881 -69 -126 -123 -231 -122 -233 2 -2 50 24 107 58 533
318 1250 517 1606 444 158 -32 308 -128 367 -236 26 -46 30 -63 30 -128 -1
-91 -20 -134 -92 -201 -67 -63 -145 -92 -243 -92 -84 0 -135 15 -216 64 -96
58 -175 145 -231 256 -28 54 -56 115 -62 135 -14 42 4 42 -176 6 -304 -60
-731 -254 -1125 -513 l-125 -82 -370 -687 c-387 -719 -435 -814 -455 -908 -35
-163 56 -277 222 -278 173 0 323 72 671 323 93 67 185 132 205 144 l37 23 977
0 977 0 112 -177 c62 -98 405 -641 762 -1208 357 -566 651 -1032 653 -1034 2
-2 4 509 4 1137 l0 1141 -137 3 -138 3 0 65 0 65 550 0 550 0 0 -65 0 -65
-137 -3 -138 -3 0 -1602 0 -1602 91 90 c565 559 985 1307 1183 2106 176 715
178 1449 5 2159 -156 637 -438 1221 -838 1730 -318 405 -730 777 -1156 1042
-602 376 -1237 595 -1955 674 -197 21 -634 27 -820 9z m3768 -2562 l-3 -98
-650 -5 c-582 -5 -656 -8 -709 -24 -199 -60 -348 -178 -435 -345 -41 -79 -71
-168 -71 -208 l0 -23 935 0 936 0 -3 -97 -3 -98 -932 -3 c-880 -2 -933 -3
-933 -20 0 -36 31 -130 64 -197 85 -172 237 -296 438 -357 72 -22 82 -22 721
-26 l647 -3 0 -95 0 -95 -662 4 c-649 3 -665 3 -743 25 -338 94 -582 349 -656
687 -7 34 -13 119 -13 195 1 117 4 147 27 223 60 197 167 350 330 473 113 85
288 154 439 173 35 5 337 9 671 10 l608 1 -3 -97z"/>
<path d="M3460 6614 c-532 -310 -1228 -523 -1720 -526 -141 -1 -236 19 -338
71 -73 37 -155 110 -189 169 l-27 46 -18 -89 c-124 -615 -114 -1281 28 -1900
317 -1381 1263 -2536 2554 -3120 820 -372 1735 -490 2621 -340 506 86 902 221
1375 468 304 160 507 297 838 569 20 16 11 17 -183 20 l-203 3 -920 1540
c-506 847 -923 1547 -928 1555 -6 9 -10 -585 -10 -1472 l0 -1487 143 -3 142
-3 3 -66 3 -66 -383 -6 c-211 -4 -638 -7 -950 -7 l-568 0 0 75 0 75 199 0 199
0 6 303 c3 166 9 877 12 1580 l6 1277 -233 0 -234 0 -150 -111 c-278 -206
-377 -268 -522 -330 -277 -119 -546 -104 -771 44 -229 149 -323 372 -262 623
29 125 77 224 327 690 257 478 255 474 251 474 -2 -1 -46 -26 -98 -56z"/>
<path d="M5326 3953 c-3 -731 -7 -1440 -8 -1578 l-3 -250 408 -3 407 -2 0
1580 0 1580 -399 0 -399 0 -6 -1327z"/>
</g>
</svg>
